# xmcd
#
# Track frame offsets: 
#        150
#        23917
#        42676
#        62856
#        80852
#        95723
#        115248
#        138964
#        156127
#        173940
#        191904
#        212382
#        226595
#
# Disc length: 3261 seconds
#
# Revision: 6
# Processed by: cddbd v1.5.2PL0 Copyright (c) Steve Scherf et al.
# Submitted via: ExactAudioCopy v1.1
#
DISCID=b60cbb0d
DTITLE=Fiorella Mannoia - Onda Tropicale
DYEAR=2006
DGENRE=Pop
TTITLE0=Canzoni e momenti (con Milton Nascimento)
TTITLE1=13 di maggio (con Caetano Veloso)
TTITLE2=Cravo e canela (con Milton Nascimento)
TTITLE3=Dois irmaos (con Chico Buarque)
TTITLE4=Mama Africa (con Chico Cesar)
TTITLE5=Un grande abbraccio (con Gilberto Gil)
TTITLE6=Senza un frammento (con Djavan)
TTITLE7=Kabula le le (con Carlinhos Brown)
TTITLE8=Vivo! (con Lenine)
TTITLE9=Mas que nada (con Jorge Benjor)
TTITLE10=A felicidade (con Adriana Calcanhotto)
TTITLE11=Canzoni e momenti (reprise)
TTITLE12=Vivo (solo Fiorella Mannoia)
EXTD=
EXTT0=
EXTT1=
EXTT2=
EXTT3=
EXTT4=
EXTT5=
EXTT6=
EXTT7=
EXTT8=
EXTT9=
EXTT10=
EXTT11=
EXTT12=
PLAYORDER=
